<svg width="192" height="56" viewBox="0 0 192 56" fill="none" xmlns="http://www.w3.org/2000/svg">
<rect width="192" height="56" rx="28" fill="#6C00FF"/>
<path d="M43.9688 18C38.4487 18 33.9688 22.48 33.9688 28C33.9688 33.52 38.4487 38 43.9688 38C49.4888 38 53.9688 33.52 53.9688 28C53.9688 22.48 49.4988 18 43.9688 18ZM46.9688 30.23L44.0687 31.9C43.7087 32.11 43.3088 32.21 42.9187 32.21C42.5188 32.21 42.1287 32.11 41.7688 31.9C41.0487 31.48 40.6187 30.74 40.6187 29.9V26.55C40.6187 25.72 41.0487 24.97 41.7688 24.55C42.4888 24.13 43.3487 24.13 44.0787 24.55L46.9787 26.22C47.6987 26.64 48.1287 27.38 48.1287 28.22C48.1287 29.06 47.6987 29.81 46.9688 30.23Z" fill="white"/>
<path d="M75.8009 33L72.5369 21.8H74.7769L76.9369 30.408L79.1289 21.8H81.5929L83.8009 30.408L85.9609 21.8H88.2009L84.9689 33H82.6649L80.3769 24.792L78.0729 33H75.8009ZM91.5644 24.808C93.6764 24.808 95.1164 25.944 95.1164 28.088V33H93.1644V31.832C92.7164 32.616 91.7404 33.128 90.7484 33.128C89.1644 33.128 88.0604 32.104 88.0604 30.728C88.0604 29.144 89.2604 28.296 91.6604 28.04L93.1644 27.896V27.816C93.1644 26.904 92.5404 26.344 91.5644 26.344C90.6844 26.344 90.0604 26.888 89.9644 27.752L88.1724 27.432C88.4284 25.832 89.8524 24.808 91.5644 24.808ZM91.1964 31.64C92.4444 31.64 93.1644 30.696 93.1644 29.512V29.336L91.6284 29.512C90.5564 29.64 90.0124 30.088 90.0124 30.664C90.0124 31.224 90.4604 31.64 91.1964 31.64ZM101.729 32.92C101.329 33.064 100.897 33.128 100.433 33.128C98.8008 33.128 97.5848 32.248 97.5848 30.36V26.632H96.2248V24.936H97.5848V22.568H99.6008V24.936H101.633V26.632H99.6008V30.168C99.6008 30.936 100.017 31.352 100.641 31.352C100.945 31.352 101.297 31.304 101.585 31.16L101.729 32.92ZM106.624 33.128C104.208 33.128 102.528 31.432 102.528 28.968C102.528 26.504 104.208 24.808 106.624 24.808C108.688 24.808 110.144 25.88 110.416 27.592L108.448 27.976C108.304 27.128 107.632 26.552 106.688 26.552C105.44 26.552 104.624 27.496 104.624 28.968C104.624 30.44 105.44 31.384 106.688 31.384C107.632 31.384 108.256 30.872 108.448 30.008L110.416 30.408C110.112 32.104 108.656 33.128 106.624 33.128ZM111.929 33V21.672H113.945V26.184C114.473 25.304 115.385 24.808 116.505 24.808C118.313 24.808 119.513 25.96 119.513 27.72V33H117.497V28.216C117.497 27.224 116.889 26.6 115.897 26.6C114.649 26.6 113.945 27.672 113.945 29.496V33H111.929ZM125.384 33V21.8H127.56V33H125.384ZM129.585 33V24.936H131.601V26.152C132.113 25.368 133.025 24.808 134.161 24.808C135.921 24.808 137.105 25.96 137.105 27.72V33H135.089V28.2C135.089 27.256 134.497 26.6 133.553 26.6C132.321 26.6 131.601 27.656 131.601 29.464V33H129.585ZM143.573 32.92C143.173 33.064 142.741 33.128 142.277 33.128C140.645 33.128 139.429 32.248 139.429 30.36V26.632H138.069V24.936H139.429V22.568H141.445V24.936H143.477V26.632H141.445V30.168C141.445 30.936 141.861 31.352 142.485 31.352C142.789 31.352 143.141 31.304 143.429 31.16L143.573 32.92ZM150.16 26.888C149.872 26.76 149.488 26.696 149.136 26.696C148 26.696 146.976 27.64 146.976 30.04V33H144.96V24.936H146.976V26.408C147.376 25.496 148.432 24.808 149.408 24.808C149.696 24.808 150.048 24.856 150.288 24.936L150.16 26.888ZM154.955 33.128C152.507 33.128 150.747 31.368 150.747 28.968C150.747 26.568 152.507 24.808 154.955 24.808C157.403 24.808 159.163 26.568 159.163 28.968C159.163 31.368 157.403 33.128 154.955 33.128ZM154.955 31.384C156.251 31.384 157.131 30.408 157.131 28.968C157.131 27.528 156.251 26.552 154.955 26.552C153.643 26.552 152.779 27.528 152.779 28.968C152.779 30.408 153.643 31.384 154.955 31.384Z" fill="white"/>
</svg>
