<svg width="96" height="96" viewBox="0 0 96 96" fill="none" xmlns="http://www.w3.org/2000/svg">
<rect width="96" height="96" rx="48" fill="#6C00FF"/>
<path d="M55.0666 31.3333H40.9333C36.3333 31.3333 34.6666 32.9999 34.6666 37.6833V58.3166C34.6666 62.9999 36.3333 64.6666 40.9333 64.6666H55.05C59.6666 64.6666 61.3333 62.9999 61.3333 58.3166V37.6833C61.3333 32.9999 59.6666 31.3333 55.0666 31.3333ZM48 60.1666C46.4 60.1666 45.0833 58.8499 45.0833 57.2499C45.0833 55.6499 46.4 54.3333 48 54.3333C49.6 54.3333 50.9166 55.6499 50.9166 57.2499C50.9166 58.8499 49.6 60.1666 48 60.1666ZM51.3333 38.4166H44.6666C43.9833 38.4166 43.4166 37.8499 43.4166 37.1666C43.4166 36.4833 43.9833 35.9166 44.6666 35.9166H51.3333C52.0166 35.9166 52.5833 36.4833 52.5833 37.1666C52.5833 37.8499 52.0166 38.4166 51.3333 38.4166Z" fill="white"/>
</svg>
