<svg width="96" height="96" viewBox="0 0 96 96" fill="none" xmlns="http://www.w3.org/2000/svg">
<rect width="96" height="96" rx="48" fill="#6C00FF"/>
<path d="M57.2666 31.3333H38.6833C34.6333 31.3333 31.3333 34.6333 31.3333 38.6833V49.5166V49.8499C31.3333 53.9166 34.6333 57.1999 38.6833 57.1999H45.0833C46 57.1999 46.75 57.9499 46.75 58.8666V60.4833C46.75 61.3999 46 62.1499 45.0833 62.1499H41.05C40.3666 62.1499 39.8 62.7166 39.8 63.3999C39.8 64.0833 40.35 64.6666 41.05 64.6666H54.9666C55.65 64.6666 56.2166 64.0999 56.2166 63.4166C56.2166 62.7333 55.65 62.1666 54.9666 62.1666H50.9333C50.0166 62.1666 49.2666 61.4166 49.2666 60.4999V58.8833C49.2666 57.9666 50.0166 57.2166 50.9333 57.2166H57.2833C61.35 57.2166 64.6333 53.9166 64.6333 49.8666V49.5333V38.6999C64.6166 34.6333 61.3166 31.3333 57.2666 31.3333Z" fill="white"/>
</svg>
