<svg width="96" height="96" viewBox="0 0 96 96" fill="none" xmlns="http://www.w3.org/2000/svg">
<rect width="96" height="96" rx="48" fill="#6C00FF"/>
<path d="M61.6805 41.0357L48.8472 48.469C48.3305 48.769 47.6805 48.769 47.1472 48.469L34.3138 41.0357C33.3971 40.5023 33.1638 39.2523 33.8638 38.469C34.3471 37.919 34.8971 37.469 35.4804 37.1523L44.5138 32.1523C46.4472 31.069 49.5805 31.069 51.5138 32.1523L60.5472 37.1523C61.1305 37.469 61.6805 37.9357 62.1638 38.469C62.8305 39.2523 62.5972 40.5023 61.6805 41.0357Z" fill="white"/>
<path d="M47.0508 51.5649V62.9316C47.0508 64.1983 45.7675 65.0316 44.6341 64.4816C41.2008 62.7983 35.4174 59.6483 35.4174 59.6483C33.3841 58.4983 31.7174 55.5983 31.7174 53.2149V44.6149C31.7174 43.2983 33.1008 42.4649 34.2341 43.1149L46.2175 50.0649C46.7175 50.3816 47.0508 50.9483 47.0508 51.5649Z" fill="white"/>
<path d="M48.9505 51.5649V62.9316C48.9505 64.1983 50.2338 65.0316 51.3672 64.4816C54.8005 62.7983 60.5838 59.6483 60.5838 59.6483C62.6172 58.4983 64.2838 55.5983 64.2838 53.2149V44.6149C64.2838 43.2983 62.9005 42.4649 61.7672 43.1149L49.7838 50.0649C49.2838 50.3816 48.9505 50.9483 48.9505 51.5649Z" fill="white"/>
</svg>
