<svg width="111" height="24" viewBox="0 0 111 24" fill="none" xmlns="http://www.w3.org/2000/svg">
<path d="M9.60304 18.288C8.37104 18.288 7.28304 18.08 6.33904 17.664C5.39504 17.232 4.65104 16.624 4.10704 15.84C3.56304 15.04 3.28304 14.072 3.26704 12.936H6.50704C6.53904 13.72 6.81904 14.384 7.34704 14.928C7.89104 15.456 8.63504 15.72 9.57904 15.72C10.395 15.72 11.043 15.528 11.523 15.144C12.003 14.744 12.243 14.216 12.243 13.56C12.243 12.872 12.027 12.336 11.595 11.952C11.179 11.568 10.619 11.256 9.91504 11.016C9.21104 10.776 8.45904 10.52 7.65904 10.248C6.36304 9.8 5.37104 9.224 4.68304 8.52C4.01104 7.816 3.67504 6.88 3.67504 5.712C3.65904 4.72 3.89104 3.872 4.37104 3.168C4.86704 2.448 5.53904 1.896 6.38704 1.512C7.23504 1.112 8.21104 0.912 9.31504 0.912C10.435 0.912 11.419 1.112 12.267 1.512C13.131 1.912 13.803 2.472 14.283 3.192C14.779 3.912 15.043 4.768 15.075 5.76H11.787C11.771 5.168 11.539 4.648 11.091 4.2C10.659 3.736 10.051 3.504 9.26704 3.504C8.59504 3.488 8.02704 3.656 7.56304 4.008C7.11504 4.344 6.89104 4.84 6.89104 5.496C6.89104 6.056 7.06704 6.504 7.41904 6.84C7.77104 7.16 8.25104 7.432 8.85904 7.656C9.46704 7.88 10.163 8.12 10.947 8.376C11.779 8.664 12.539 9 13.227 9.384C13.915 9.768 14.467 10.28 14.883 10.92C15.299 11.544 15.507 12.352 15.507 13.344C15.507 14.224 15.283 15.04 14.835 15.792C14.387 16.544 13.723 17.152 12.843 17.616C11.963 18.064 10.883 18.288 9.60304 18.288ZM23.1267 18C21.8787 18 20.8787 17.696 20.1267 17.088C19.3747 16.48 18.9987 15.4 18.9987 13.848V8.664H16.9587V6.096H18.9987L19.3587 2.904H22.0707V6.096H25.2867V8.664H22.0707V13.872C22.0707 14.448 22.1907 14.848 22.4307 15.072C22.6867 15.28 23.1187 15.384 23.7267 15.384H25.2147V18H23.1267ZM31.7356 18.288C30.7116 18.288 29.8716 18.128 29.2156 17.808C28.5596 17.472 28.0716 17.032 27.7516 16.488C27.4316 15.944 27.2716 15.344 27.2716 14.688C27.2716 13.584 27.7036 12.688 28.5676 12C29.4316 11.312 30.7276 10.968 32.4556 10.968H35.4796V10.68C35.4796 9.864 35.2476 9.264 34.7836 8.88C34.3196 8.496 33.7436 8.304 33.0556 8.304C32.4316 8.304 31.8876 8.456 31.4236 8.76C30.9596 9.048 30.6716 9.48 30.5596 10.056H27.5596C27.6396 9.192 27.9276 8.44 28.4236 7.8C28.9356 7.16 29.5916 6.672 30.3916 6.336C31.1916 5.984 32.0876 5.808 33.0796 5.808C34.7756 5.808 36.1116 6.232 37.0876 7.08C38.0636 7.928 38.5516 9.128 38.5516 10.68V18H35.9356L35.6476 16.08C35.2956 16.72 34.7996 17.248 34.1596 17.664C33.5356 18.08 32.7276 18.288 31.7356 18.288ZM32.4316 15.888C33.3116 15.888 33.9916 15.6 34.4716 15.024C34.9676 14.448 35.2796 13.736 35.4076 12.888H32.7916C31.9756 12.888 31.3916 13.04 31.0396 13.344C30.6876 13.632 30.5116 13.992 30.5116 14.424C30.5116 14.888 30.6876 15.248 31.0396 15.504C31.3916 15.76 31.8556 15.888 32.4316 15.888ZM41.1904 18V6.096H43.9264L44.2144 8.328C44.6464 7.56 45.2304 6.952 45.9664 6.504C46.7184 6.04 47.5984 5.808 48.6064 5.808V9.048H47.7424C47.0704 9.048 46.4704 9.152 45.9424 9.36C45.4144 9.568 44.9984 9.928 44.6944 10.44C44.4064 10.952 44.2624 11.664 44.2624 12.576V18H41.1904ZM55.7174 18C54.4694 18 53.4694 17.696 52.7174 17.088C51.9654 16.48 51.5894 15.4 51.5894 13.848V8.664H49.5494V6.096H51.5894L51.9494 2.904H54.6614V6.096H57.8774V8.664H54.6614V13.872C54.6614 14.448 54.7814 14.848 55.0214 15.072C55.2774 15.28 55.7094 15.384 56.3174 15.384H57.8054V18H55.7174ZM71.6943 6.096V18H68.9823L68.7423 15.984C68.3743 16.688 67.8383 17.248 67.1343 17.664C66.4463 18.08 65.6303 18.288 64.6863 18.288C63.2143 18.288 62.0703 17.824 61.2543 16.896C60.4383 15.968 60.0303 14.608 60.0303 12.816V6.096H63.1023V12.528C63.1023 13.552 63.3103 14.336 63.7263 14.88C64.1423 15.424 64.7903 15.696 65.6703 15.696C66.5343 15.696 67.2383 15.392 67.7823 14.784C68.3423 14.176 68.6223 13.328 68.6223 12.24V6.096H71.6943ZM74.5311 23.28V6.096H77.2671L77.6031 7.8C77.9871 7.272 78.4911 6.808 79.1151 6.408C79.7551 6.008 80.5791 5.808 81.5871 5.808C82.7071 5.808 83.7071 6.08 84.5871 6.624C85.4671 7.168 86.1631 7.912 86.6751 8.856C87.1871 9.8 87.4431 10.872 87.4431 12.072C87.4431 13.272 87.1871 14.344 86.6751 15.288C86.1631 16.216 85.4671 16.952 84.5871 17.496C83.7071 18.024 82.7071 18.288 81.5871 18.288C80.6911 18.288 79.9071 18.12 79.2351 17.784C78.5631 17.448 78.0191 16.976 77.6031 16.368V23.28H74.5311ZM80.9391 15.6C81.9151 15.6 82.7231 15.272 83.3631 14.616C84.0031 13.96 84.3231 13.112 84.3231 12.072C84.3231 11.032 84.0031 10.176 83.3631 9.504C82.7231 8.832 81.9151 8.496 80.9391 8.496C79.9471 8.496 79.1311 8.832 78.4911 9.504C77.8671 10.16 77.5551 11.008 77.5551 12.048C77.5551 13.088 77.8671 13.944 78.4911 14.616C79.1311 15.272 79.9471 15.6 80.9391 15.6ZM100.889 18.288C99.7848 18.288 98.7848 18.096 97.8888 17.712C96.9928 17.312 96.2728 16.704 95.7288 15.888C95.1848 15.072 94.8968 14.048 94.8648 12.816H97.8888C97.9048 13.632 98.1688 14.32 98.6808 14.88C99.2088 15.424 99.9448 15.696 100.889 15.696C101.785 15.696 102.473 15.448 102.953 14.952C103.433 14.456 103.673 13.832 103.673 13.08C103.673 12.2 103.353 11.536 102.713 11.088C102.089 10.624 101.281 10.392 100.289 10.392H99.0408V7.872H100.313C101.129 7.872 101.809 7.68 102.353 7.296C102.897 6.912 103.169 6.344 103.169 5.592C103.169 4.968 102.961 4.472 102.545 4.104C102.145 3.72 101.585 3.528 100.865 3.528C100.081 3.528 99.4648 3.76 99.0168 4.224C98.5848 4.688 98.3448 5.256 98.2968 5.928H95.2968C95.3608 4.376 95.8968 3.152 96.9048 2.256C97.9288 1.36 99.2488 0.912 100.865 0.912C102.017 0.912 102.985 1.12 103.769 1.536C104.569 1.936 105.169 2.472 105.569 3.144C105.985 3.816 106.193 4.56 106.193 5.376C106.193 6.32 105.929 7.12 105.401 7.776C104.889 8.416 104.249 8.848 103.481 9.072C104.425 9.264 105.193 9.728 105.785 10.464C106.377 11.184 106.673 12.096 106.673 13.2C106.673 14.128 106.449 14.976 106.001 15.744C105.553 16.512 104.897 17.128 104.033 17.592C103.185 18.056 102.137 18.288 100.889 18.288Z" fill="#1E0E62"/>
</svg>
